<?xml version="1.0" standalone="no"?>
<!DOCTYPE svg PUBLIC "-//W3C//DTD SVG 20010904//EN"
 "http://www.w3.org/TR/2001/REC-SVG-20010904/DTD/svg10.dtd">
<svg version="1.0" xmlns="http://www.w3.org/2000/svg"
 width="1024.000000pt" height="576.000000pt" viewBox="0 0 1024.000000 576.000000"
 preserveAspectRatio="xMidYMid meet">
<metadata>
Created by potrace 1.14, written by Peter Selinger 2001-2017
</metadata>
<g transform="translate(0.000000,576.000000) scale(0.100000,-0.100000)"
fill="#000000" stroke="none">
<path d="M0 2880 l0 -2880 5120 0 5120 0 0 2880 0 2880 -5120 0 -5120 0 0
-2880z m5770 445 c89 -28 210 -90 233 -120 4 -6 10 -5 16 4 6 9 11 10 15 2 4
-6 2 -11 -5 -11 -7 0 -5 -8 6 -20 21 -23 55 -27 55 -6 0 23 -18 28 -29 9 -6
-10 -11 -13 -11 -7 0 6 10 19 22 30 12 10 18 13 14 7 -5 -9 0 -13 13 -13 22 0
36 -16 22 -24 -5 -4 -12 0 -14 6 -3 7 -5 0 -5 -17 0 -16 2 -24 5 -17 2 6 16
12 29 12 13 0 24 6 24 13 0 8 3 7 10 -3 6 -9 5 -17 -3 -23 -8 -6 -7 -7 3 -4 8
2 14 10 12 16 -1 6 7 11 17 11 19 0 40 -27 97 -129 17 -30 40 -58 50 -62 11
-4 15 -8 9 -8 -5 -1 -4 -5 4 -10 24 -16 42 -2 30 22 -9 20 -9 20 9 -1 10 -13
25 -23 33 -21 31 5 48 -14 65 -77 11 -43 20 -61 26 -52 6 11 10 11 17 0 9 -15
20 -15 38 -1 7 7 13 5 15 -3 4 -10 10 -10 31 -1 20 9 27 9 30 0 2 -8 28 -11
80 -10 53 1 77 -2 77 -9 0 -9 3 -9 11 -1 8 8 20 8 36 2 13 -5 22 -5 19 -1 -3
5 22 8 54 8 33 -1 60 -4 60 -7 0 -3 7 -6 15 -6 8 0 15 5 15 10 0 5 11 7 25 5
14 -3 25 -1 25 5 0 6 3 7 7 4 3 -4 -10 -24 -31 -44 l-37 -37 -30 18 c-20 12
-34 15 -42 8 -7 -6 -25 -12 -42 -14 -23 -2 -35 -12 -49 -39 -27 -49 -52 -65
-72 -44 -22 22 -47 19 -74 -10 -15 -16 -33 -24 -49 -23 -14 1 -36 -2 -49 -6
-18 -6 -29 -2 -49 18 -14 14 -42 28 -62 31 -20 4 -46 8 -58 11 -16 3 -29 -6
-52 -34 -36 -46 -87 -65 -131 -49 -25 10 -32 8 -53 -11 -13 -12 -28 -22 -34
-22 -6 0 -16 -7 -23 -15 -7 -8 -28 -15 -47 -15 -25 0 -52 -13 -98 -45 -35 -25
-65 -51 -68 -58 -3 -7 -31 -21 -62 -31 -32 -10 -72 -26 -89 -37 -44 -27 -57
-24 -114 21 -27 22 -60 40 -73 40 -44 0 -104 22 -157 57 -44 29 -59 34 -88 29
-30 -6 -38 -3 -70 31 -20 21 -47 54 -60 74 -27 40 -67 55 -85 33 -16 -20 -28
-17 -39 9 -5 12 -18 33 -28 46 l-19 24 -29 -24 c-15 -13 -64 -58 -107 -99 -81
-78 -111 -91 -152 -64 -23 14 -69 8 -85 -12 -9 -10 -17 -10 -36 -2 -19 9 -28
8 -42 -5 -10 -10 -28 -17 -39 -17 -12 0 -23 -8 -26 -19 -7 -26 -89 -32 -192
-13 -56 10 -112 12 -188 8 l-107 -6 -85 45 c-47 25 -91 45 -99 45 -19 0 -75
-29 -116 -59 -32 -24 -40 -26 -90 -19 -30 4 -156 11 -280 16 -250 10 -249 10
-352 89 -32 24 -79 53 -105 64 -27 12 -62 27 -80 35 -17 8 -53 14 -81 14 -32
0 -54 5 -62 15 -18 22 -3 32 22 16 18 -11 23 -11 32 1 13 17 87 19 98 3 5 -6
8 -2 8 9 0 15 3 16 15 6 12 -10 15 -10 15 3 0 8 8 21 18 28 15 13 16 12 3 -3
-12 -16 -11 -18 3 -18 9 0 16 -4 16 -10 0 -5 7 -10 15 -10 8 0 15 9 15 20 0
16 7 20 30 20 17 0 32 -1 33 -2 2 -2 11 3 20 11 10 7 17 9 17 3 0 -12 -30 -26
-50 -23 -12 2 -12 0 -3 -10 15 -15 76 7 66 25 -4 6 2 4 12 -4 10 -8 16 -10 12
-4 -13 22 27 26 45 5 21 -27 28 -26 29 2 0 12 3 16 6 9 2 -6 10 -9 16 -5 21
13 337 12 337 -1 0 -6 5 -3 11 7 6 9 15 14 21 11 18 -11 175 -6 197 5 25 14
41 14 21 1 -12 -8 -11 -10 6 -10 11 0 26 6 33 13 11 10 12 9 7 -1 -6 -10 6
-13 58 -11 53 2 66 5 66 18 1 14 2 14 13 -1 14 -17 77 -23 77 -6 0 16 20 8 20
-9 1 -17 2 -17 15 1 15 20 52 15 39 -5 -4 -8 -3 -9 4 -5 7 4 12 14 12 22 0 12
4 13 23 2 29 -16 39 -17 56 -4 12 9 13 7 7 -8 -7 -19 -6 -19 13 -2 15 13 20
14 24 4 5 -10 9 -9 17 4 10 16 13 17 34 2 19 -12 25 -12 30 -2 5 10 7 10 12 1
7 -16 41 -17 46 -2 2 6 14 5 33 -5 26 -14 30 -14 38 0 7 13 11 13 25 2 12 -10
14 -10 8 0 -4 6 -3 12 3 12 5 0 11 -5 13 -10 2 -7 15 -7 37 0 24 7 39 6 48 -1
12 -10 17 -6 15 12 -1 4 8 5 18 2 11 -3 20 -10 20 -17 1 -15 30 25 30 41 0 25
44 113 57 113 7 0 12 -5 11 -11 -2 -6 7 -15 19 -19 17 -7 21 -6 16 6 -3 7 0
14 6 14 6 0 11 8 12 18 0 13 2 12 9 -5 14 -34 27 -28 51 20 40 78 94 156 114
163 11 4 26 14 33 23 12 14 13 14 8 -3 -6 -16 -4 -17 9 -6 13 11 14 10 10 -3
-4 -8 -1 -18 6 -23 8 -5 10 -3 4 6 -6 10 -2 11 19 6 16 -4 26 -2 26 4 0 6 -4
9 -9 5 -6 -3 -15 4 -21 15 -11 20 -10 21 10 10 12 -7 31 -10 41 -7 24 6 24 -2
2 -19 -16 -12 -16 -13 -2 -14 19 0 42 24 32 33 -3 4 3 7 15 7 11 0 23 4 26 9
4 5 37 27 74 48 67 39 137 65 222 83 64 13 235 4 300 -15z m-1132 -1330 c17
-13 26 -13 43 -5 16 9 24 8 37 -3 29 -25 60 -30 84 -13 12 9 32 16 43 16 23
-1 153 -115 143 -126 -8 -8 -207 -8 -216 0 -3 3 2 6 11 6 10 0 17 5 17 10 0 6
-3 10 -8 10 -4 0 -18 10 -32 23 -66 60 -95 65 -129 23 -20 -24 -85 -38 -141
-30 -51 7 -51 7 -30 26 11 10 20 27 20 37 0 33 119 53 158 26z m965 -46 c175
-11 197 -14 192 -29 -8 -26 79 -60 155 -60 98 0 -89 -66 -215 -76 -33 -2 -83
-6 -112 -8 -28 -2 -57 -7 -62 -11 -6 -3 -16 -3 -23 1 -7 4 -28 9 -48 11 -68 6
-161 24 -222 43 -34 10 -65 17 -70 14 -4 -3 -8 0 -8 5 0 6 11 11 24 11 16 0
39 19 76 61 48 55 56 60 84 55 17 -2 120 -10 229 -17z"/>
</g>
</svg>
